<svg width="56" height="43" viewBox="0 0 56 43" fill="none" xmlns="http://www.w3.org/2000/svg">
<path d="M47.1671 4.17486C43.6522 2.56207 39.883 1.37384 35.942 0.693285C35.8702 0.68015 35.7986 0.712974 35.7616 0.778623C35.2768 1.6408 34.7399 2.76557 34.3639 3.64964C30.1251 3.01506 25.9081 3.01506 21.7563 3.64964C21.3802 2.74592 20.8238 1.6408 20.3368 0.778623C20.2999 0.715164 20.2282 0.68234 20.1564 0.693285C16.2176 1.37166 12.4484 2.55989 8.93132 4.17486C8.90088 4.18799 8.87478 4.20989 8.85746 4.23832C1.70805 14.9194 -0.250466 25.3379 0.710319 35.6273C0.714666 35.6776 0.742924 35.7257 0.782052 35.7563C5.49902 39.2204 10.0682 41.3234 14.5526 42.7173C14.6243 42.7392 14.7004 42.7129 14.746 42.6538C15.8068 41.2052 16.7524 39.6778 17.5631 38.0715C17.611 37.9775 17.5653 37.8659 17.4675 37.8287C15.9677 37.2597 14.5395 36.566 13.1657 35.7783C13.0571 35.7148 13.0484 35.5594 13.1483 35.485C13.4374 35.2683 13.7266 35.0429 14.0026 34.8153C14.0526 34.7738 14.1222 34.765 14.1809 34.7913C23.2061 38.9119 32.977 38.9119 41.8958 34.7913C41.9545 34.7628 42.0241 34.7716 42.0762 34.8132C42.3523 35.0407 42.6414 35.2683 42.9327 35.485C43.0327 35.5594 43.0261 35.7148 42.9175 35.7783C41.5437 36.5813 40.1155 37.2597 38.6135 37.8265C38.5157 37.8637 38.4722 37.9775 38.52 38.0715C39.3482 39.6756 40.2938 41.203 41.335 42.6517C41.3785 42.7129 41.4567 42.7392 41.5285 42.7173C46.0345 41.3234 50.6037 39.2204 55.3207 35.7563C55.362 35.7257 55.3881 35.6798 55.3924 35.6294C56.5423 23.7338 53.4665 13.4007 47.2388 4.24049C47.2236 4.20989 47.1975 4.18799 47.1671 4.17486ZM18.9109 29.3621C16.1937 29.3621 13.9548 26.8675 13.9548 23.8039C13.9548 20.7402 16.1503 18.2456 18.9109 18.2456C21.6932 18.2456 23.9105 20.7621 23.867 23.8039C23.867 26.8675 21.6715 29.3621 18.9109 29.3621ZM37.2353 29.3621C34.5182 29.3621 32.2793 26.8675 32.2793 23.8039C32.2793 20.7402 34.4747 18.2456 37.2353 18.2456C40.0177 18.2456 42.2349 20.7621 42.1915 23.8039C42.1915 26.8675 40.0177 29.3621 37.2353 29.3621Z" fill="#377BFF"/>
</svg>
